<svg width="1290" height="2796" viewBox="0 0 1290 2796" xmlns="http://www.w3.org/2000/svg">
  <defs>
    <linearGradient id="bg" x1="0" y1="0" x2="0" y2="1">
      <stop offset="0" stop-color="#0e1535"/>
      <stop offset="1" stop-color="#020412"/>
    </linearGradient>
    <radialGradient id="glow" cx="0.5" cy="0.18" r="0.7">
      <stop offset="0" stop-color="#46e4ff" stop-opacity="0.35"/>
      <stop offset="1" stop-color="#46e4ff" stop-opacity="0"/>
    </radialGradient>
    <radialGradient id="glow2" cx="0.15" cy="0.78" r="0.5">
      <stop offset="0" stop-color="#7c5cff" stop-opacity="0.30"/>
      <stop offset="1" stop-color="#7c5cff" stop-opacity="0"/>
    </radialGradient>
    <clipPath id="iconClip">
      <rect x="495" y="380" width="300" height="300" rx="66" ry="66"/>
    </clipPath>
  </defs>

  <rect width="1290" height="2796" fill="url(#bg)"/>
  <rect width="1290" height="2796" fill="url(#glow)"/>
  <rect width="1290" height="2796" fill="url(#glow2)"/>

  <image href="../Fantasy Football App/Assets.xcassets/AppIcon.appiconset/AppIcon.png"
         x="495" y="380" width="300" height="300"
         clip-path="url(#iconClip)"/>

  <!-- Stat bar decoration -->
  <g transform="translate(345, 770)">
    <rect x="0"   y="70" width="80" height="60" fill="#46e4ff" opacity="0.7" rx="4"/>
    <rect x="100" y="40" width="80" height="90" fill="#46e4ff" opacity="0.8" rx="4"/>
    <rect x="200" y="10" width="80" height="120" fill="#46e4ff" rx="4"/>
    <rect x="300" y="55" width="80" height="75" fill="#7c5cff" opacity="0.7" rx="4"/>
    <rect x="400" y="25" width="80" height="105" fill="#7c5cff" opacity="0.85" rx="4"/>
    <rect x="500" y="60" width="80" height="70" fill="#7c5cff" opacity="0.6" rx="4"/>
  </g>

  <text x="645" y="1340" text-anchor="middle"
        font-family="Helvetica" font-weight="bold" font-size="160" fill="#ffffff">Live scores</text>
  <text x="645" y="1510" text-anchor="middle"
        font-family="Helvetica" font-weight="bold" font-size="160" fill="#46e4ff">all season.</text>

  <text x="645" y="1700" text-anchor="middle"
        font-family="Helvetica" font-size="62" fill="#ffffff" opacity="0.72">PPR. Half. Standard. Pick one.</text>

  <text x="645" y="2650" text-anchor="middle"
        font-family="Helvetica" font-weight="bold" font-size="44" fill="#ffffff" opacity="0.55">FANTASY FOOTBALL</text>
</svg>
